<?xml version="1.0" encoding="UTF-8" standalone="no"?>
<!-- Created with Inkscape (http://www.inkscape.org/) -->

<svg
   xmlns:dc="http://purl.org/dc/elements/1.1/"
   xmlns:cc="http://creativecommons.org/ns#"
   xmlns:rdf="http://www.w3.org/1999/02/22-rdf-syntax-ns#"
   xmlns:svg="http://www.w3.org/2000/svg"
   xmlns="http://www.w3.org/2000/svg"
   xmlns:sodipodi="http://sodipodi.sourceforge.net/DTD/sodipodi-0.dtd"
   xmlns:inkscape="http://www.inkscape.org/namespaces/inkscape"
   width="100"
   height="100"
   id="svg2"
   version="1.1"
   inkscape:version="0.48.0 r9654"
   sodipodi:docname="focus.svg"
   inkscape:export-filename="/home/laochailan/src/touhouclone/gfx/focus.png"
   inkscape:export-xdpi="45"
   inkscape:export-ydpi="45">
  <defs
     id="defs4">
    <inkscape:path-effect
       effect="skeletal"
       id="path-effect3813"
       is_visible="true"
       pattern="m 3.9911308,8.1929047 10.0000002,5.0000003 0,-10.0000003 z"
       copytype="single_stretched"
       prop_scale="1"
       scale_y_rel="false"
       spacing="0"
       normal_offset="0"
       tang_offset="0"
       prop_units="false"
       vertical_pattern="false"
       fuse_tolerance="0" />
    <inkscape:path-effect
       fuse_tolerance="0"
       vertical_pattern="false"
       prop_units="false"
       tang_offset="0"
       normal_offset="0"
       spacing="0"
       scale_y_rel="false"
       prop_scale="1"
       copytype="single_stretched"
       pattern="m 0,-15.487805 c 0,-2.76 2.24,-5 5,-5 2.76,0 5,2.24 5,5 0,2.76 -2.24,5 -5,5 -2.76,0 -5,-2.24 -5,-5 z"
       is_visible="true"
       id="path-effect3775"
       effect="skeletal" />
    <inkscape:path-effect
       effect="skeletal"
       id="path-effect3771"
       is_visible="true"
       pattern="M 0,5 C 0,2.24 2.24,0 5,0 7.76,0 10,2.24 10,5 10,7.76 7.76,10 5,10 2.24,10 0,7.76 0,5 z"
       copytype="single_stretched"
       prop_scale="1"
       scale_y_rel="false"
       spacing="0"
       normal_offset="0"
       tang_offset="0"
       prop_units="false"
       vertical_pattern="false"
       fuse_tolerance="0" />
    <filter
       inkscape:collect="always"
       id="filter3765"
       x="-0.12"
       width="1.24"
       y="-0.12"
       height="1.24">
      <feGaussianBlur
         inkscape:collect="always"
         stdDeviation="0.34423504"
         id="feGaussianBlur3767" />
    </filter>
  </defs>
  <sodipodi:namedview
     id="base"
     pagecolor="#9d9d9d"
     bordercolor="#666666"
     borderopacity="1.0"
     inkscape:pageopacity="0"
     inkscape:pageshadow="2"
     inkscape:zoom="0.66438575"
     inkscape:cx="49.781722"
     inkscape:cy="42.947117"
     inkscape:document-units="px"
     inkscape:current-layer="g3822"
     showgrid="false"
     inkscape:window-width="1918"
     inkscape:window-height="1061"
     inkscape:window-x="0"
     inkscape:window-y="17"
     inkscape:window-maximized="0" />
  <metadata
     id="metadata7">
    <rdf:RDF>
      <cc:Work
         rdf:about="">
        <dc:format>image/svg+xml</dc:format>
        <dc:type
           rdf:resource="http://purl.org/dc/dcmitype/StillImage" />
        <dc:title></dc:title>
      </cc:Work>
    </rdf:RDF>
  </metadata>
  <g
     inkscape:label="Ebene 1"
     inkscape:groupmode="layer"
     id="layer1"
     transform="translate(0,-952.3622)">
    <path
       transform="matrix(2.7777775,0,0,2.7777775,12.721732,967.67077)"
       d="m 16.862528,12.488914 a 3.4423504,3.4423504 0 1 1 -6.8847009,0 3.4423504,3.4423504 0 1 1 6.8847009,0 z"
       sodipodi:ry="3.4423504"
       sodipodi:rx="3.4423504"
       sodipodi:cy="12.488914"
       sodipodi:cx="13.420177"
       id="path3755"
       style="fill:#aa0000;fill-opacity:1;stroke:none;filter:url(#filter3765)"
       sodipodi:type="arc" />
    <path
       sodipodi:type="arc"
       style="fill:#ffffff;fill-opacity:1;stroke:#483e37;stroke-width:0.52941179;stroke-miterlimit:4;stroke-opacity:1;stroke-dasharray:none"
       id="path2985"
       sodipodi:cx="13.420177"
       sodipodi:cy="12.488914"
       sodipodi:rx="3.4423504"
       sodipodi:ry="3.4423504"
       d="m 16.862528,12.488914 a 3.4423504,3.4423504 0 1 1 -6.8847009,0 3.4423504,3.4423504 0 1 1 6.8847009,0 z"
       transform="matrix(1.8888887,0,0,1.8888887,24.650778,978.77203)" />
    <g
       id="g3787"
       transform="matrix(1,0,0,-1,0,2004.6357)">
      <path
         inkscape:connector-curvature="0"
         id="path3769"
         d="m 50,990.36664 c -1.14439,0 -2.073171,-3.96346 -2.073171,-8.84701 0,-4.88354 0.928781,-8.847 2.073171,-8.847 1.14439,0 2.073171,3.96346 2.073171,8.847 0,4.88355 -0.928781,8.84701 -2.073171,8.84701 z"
         style="opacity:0.56989249;color:#000000;fill:#ffffff;fill-rule:evenodd;stroke:none;stroke-width:1;marker:none;visibility:visible;display:inline;overflow:visible;enable-background:accumulate" />
      <path
         inkscape:connector-curvature="0"
         id="path3773"
         d="m 50,967.21809 c -1.14439,0 -2.073171,-2.77145 -2.073171,-6.18626 0,-3.4148 0.928781,-6.18625 2.073171,-6.18625 1.14439,0 2.073171,2.77145 2.073171,6.18625 0,3.41481 -0.928781,6.18626 -2.073171,6.18626 z"
         style="opacity:0.56989249;color:#000000;fill:#ffffff;fill-rule:evenodd;stroke:none;stroke-width:1;marker:none;visibility:visible;display:inline;overflow:visible;enable-background:accumulate" />
      <path
         style="opacity:0.56989249;color:#000000;fill:#ffffff;fill-rule:evenodd;stroke:none;stroke-width:1;marker:none;visibility:visible;display:inline;overflow:visible;enable-background:accumulate"
         d="m 50,1014.1804 c -1.14439,0 -2.073171,3.9635 -2.073171,8.8471 0,4.8835 0.928781,8.847 2.073171,8.847 1.14439,0 2.073171,-3.9635 2.073171,-8.847 0,-4.8836 -0.928781,-8.8471 -2.073171,-8.8471 z"
         id="path3783"
         inkscape:connector-curvature="0" />
      <path
         style="opacity:0.56989249;color:#000000;fill:#ffffff;fill-rule:evenodd;stroke:none;stroke-width:1;marker:none;visibility:visible;display:inline;overflow:visible;enable-background:accumulate"
         d="m 50,1037.329 c -1.14439,0 -2.073171,2.7714 -2.073171,6.1863 0,3.4148 0.928781,6.1862 2.073171,6.1862 1.14439,0 2.073171,-2.7714 2.073171,-6.1862 0,-3.4149 -0.928781,-6.1863 -2.073171,-6.1863 z"
         id="path3785"
         inkscape:connector-curvature="0" />
    </g>
    <g
       transform="matrix(0,1,1,0,-952.27358,952.3622)"
       id="g3793">
      <path
         style="opacity:0.56989249;color:#000000;fill:#ffffff;fill-rule:evenodd;stroke:none;stroke-width:1;marker:none;visibility:visible;display:inline;overflow:visible;enable-background:accumulate"
         d="m 50,990.36664 c -1.14439,0 -2.073171,-3.96346 -2.073171,-8.84701 0,-4.88354 0.928781,-8.847 2.073171,-8.847 1.14439,0 2.073171,3.96346 2.073171,8.847 0,4.88355 -0.928781,8.84701 -2.073171,8.84701 z"
         id="path3795"
         inkscape:connector-curvature="0" />
      <path
         style="opacity:0.56989249;color:#000000;fill:#ffffff;fill-rule:evenodd;stroke:none;stroke-width:1;marker:none;visibility:visible;display:inline;overflow:visible;enable-background:accumulate"
         d="m 50,967.21809 c -1.14439,0 -2.073171,-2.77145 -2.073171,-6.18626 0,-3.4148 0.928781,-6.18625 2.073171,-6.18625 1.14439,0 2.073171,2.77145 2.073171,6.18625 0,3.41481 -0.928781,6.18626 -2.073171,6.18626 z"
         id="path3797"
         inkscape:connector-curvature="0" />
      <path
         inkscape:connector-curvature="0"
         id="path3799"
         d="m 50,1014.1804 c -1.14439,0 -2.073171,3.9635 -2.073171,8.8471 0,4.8835 0.928781,8.847 2.073171,8.847 1.14439,0 2.073171,-3.9635 2.073171,-8.847 0,-4.8836 -0.928781,-8.8471 -2.073171,-8.8471 z"
         style="opacity:0.56989249;color:#000000;fill:#ffffff;fill-rule:evenodd;stroke:none;stroke-width:1;marker:none;visibility:visible;display:inline;overflow:visible;enable-background:accumulate" />
      <path
         inkscape:connector-curvature="0"
         id="path3801"
         d="m 50,1037.329 c -1.14439,0 -2.073171,2.7714 -2.073171,6.1863 0,3.4148 0.928781,6.1862 2.073171,6.1862 1.14439,0 2.073171,-2.7714 2.073171,-6.1862 0,-3.4149 -0.928781,-6.1863 -2.073171,-6.1863 z"
         style="opacity:0.56989249;color:#000000;fill:#ffffff;fill-rule:evenodd;stroke:none;stroke-width:1;marker:none;visibility:visible;display:inline;overflow:visible;enable-background:accumulate" />
    </g>
    <g
       id="g3822"
       transform="translate(4e-5,4e-5)">
      <path
         sodipodi:nodetypes="ccccc"
         inkscape:connector-curvature="0"
         id="path3811"
         d="m 60.039441,1013.7479 9.605692,14.6071 8.717074,3.7885 -3.71556,-8.79 z"
         style="opacity:0.37634409;color:#000000;fill:#ffffff;fill-rule:evenodd;stroke:none;stroke-width:1;marker:none;visibility:visible;display:inline;overflow:visible;enable-background:accumulate" />
      <path
         style="opacity:0.37634409;color:#000000;fill:#ffffff;fill-rule:evenodd;stroke:none;stroke-width:1;marker:none;visibility:visible;display:inline;overflow:visible;enable-background:accumulate"
         d="m 60.039441,990.97642 9.605692,-14.6071 8.717074,-3.7885 -3.71556,8.79 z"
         id="path3816"
         inkscape:connector-curvature="0"
         sodipodi:nodetypes="ccccc" />
      <path
         sodipodi:nodetypes="ccccc"
         inkscape:connector-curvature="0"
         id="path3818"
         d="m 39.960479,990.97642 -9.605692,-14.6071 -8.717074,-3.7885 3.71556,8.79 z"
         style="opacity:0.37634409;color:#000000;fill:#ffffff;fill-rule:evenodd;stroke:none;stroke-width:1;marker:none;visibility:visible;display:inline;overflow:visible;enable-background:accumulate" />
      <path
         style="opacity:0.37634409;color:#000000;fill:#ffffff;fill-rule:evenodd;stroke:none;stroke-width:1;marker:none;visibility:visible;display:inline;overflow:visible;enable-background:accumulate"
         d="m 39.960479,1013.7479 -9.605692,14.6071 -8.717074,3.7885 3.71556,-8.79 z"
         id="path3820"
         inkscape:connector-curvature="0"
         sodipodi:nodetypes="ccccc" />
    </g>
  </g>
</svg>
