<?xml version="1.0" encoding="UTF-8" standalone="no"?>
<!-- Created with Inkscape (http://www.inkscape.org/) -->

<svg
   xmlns:dc="http://purl.org/dc/elements/1.1/"
   xmlns:cc="http://creativecommons.org/ns#"
   xmlns:rdf="http://www.w3.org/1999/02/22-rdf-syntax-ns#"
   xmlns:svg="http://www.w3.org/2000/svg"
   xmlns="http://www.w3.org/2000/svg"
   xmlns:xlink="http://www.w3.org/1999/xlink"
   xmlns:sodipodi="http://sodipodi.sourceforge.net/DTD/sodipodi-0.dtd"
   xmlns:inkscape="http://www.inkscape.org/namespaces/inkscape"
   width="232.38969"
   height="232.38969"
   id="svg2"
   version="1.1"
   inkscape:version="0.48.1 r9760"
   sodipodi:docname="life.svg"
   inkscape:export-filename="/home/laochailan/src/taisei/gfx/items/life.png"
   inkscape:export-xdpi="7.7456102"
   inkscape:export-ydpi="7.7456102">
  <defs
     id="defs4">
    <linearGradient
       id="linearGradient3795">
      <stop
         style="stop-color:#ffffff;stop-opacity:1;"
         offset="0"
         id="stop3797" />
      <stop
         style="stop-color:#ff8a65;stop-opacity:1;"
         offset="1"
         id="stop3799" />
    </linearGradient>
    <linearGradient
       id="linearGradient3763">
      <stop
         style="stop-color:#6a0070;stop-opacity:1;"
         offset="0"
         id="stop3765" />
      <stop
         style="stop-color:#e700ff;stop-opacity:1;"
         offset="1"
         id="stop3767" />
    </linearGradient>
    <linearGradient
       inkscape:collect="always"
       xlink:href="#linearGradient3763"
       id="linearGradient3769"
       x1="98.428574"
       y1="251.6479"
       x2="323"
       y2="251.6479"
       gradientUnits="userSpaceOnUse"
       gradientTransform="matrix(0.89238176,0,0,0.89238176,-439.68548,26.182169)" />
    <radialGradient
       inkscape:collect="always"
       xlink:href="#linearGradient3795"
       id="radialGradient3801"
       cx="250.74817"
       cy="251.64787"
       fx="250.74817"
       fy="251.64787"
       r="73.50135"
       gradientTransform="matrix(1,0,0,1.1626409,0,-40.928237)"
       gradientUnits="userSpaceOnUse" />
  </defs>
  <sodipodi:namedview
     id="base"
     pagecolor="#606060"
     bordercolor="#666666"
     borderopacity="1.0"
     inkscape:pageopacity="0"
     inkscape:pageshadow="2"
     inkscape:zoom="0.0625"
     inkscape:cx="60.706139"
     inkscape:cy="118.43871"
     inkscape:document-units="px"
     inkscape:current-layer="layer1"
     showgrid="false"
     fit-margin-top="0"
     fit-margin-left="0"
     fit-margin-right="0"
     fit-margin-bottom="0"
     inkscape:window-width="1920"
     inkscape:window-height="1039"
     inkscape:window-x="0"
     inkscape:window-y="-2"
     inkscape:window-maximized="1" />
  <metadata
     id="metadata7">
    <rdf:RDF>
      <cc:Work
         rdf:about="">
        <dc:format>image/svg+xml</dc:format>
        <dc:type
           rdf:resource="http://purl.org/dc/dcmitype/StillImage" />
        <dc:title></dc:title>
      </cc:Work>
    </rdf:RDF>
  </metadata>
  <g
     inkscape:label="Ebene 1"
     inkscape:groupmode="layer"
     id="layer1"
     transform="translate(-134.55331,-135.45305)">
    <rect
       transform="matrix(0,-1,1,0,0,0)"
       ry="22.554321"
       y="134.55331"
       x="-367.84274"
       height="232.38969"
       width="232.38969"
       id="rect3813"
       style="fill:#9700a7;fill-opacity:1;stroke:none" />
    <rect
       style="fill:url(#linearGradient3769);fill-opacity:1;stroke:#ffffff;stroke-width:19.52022361999999944;stroke-miterlimit:4;stroke-opacity:1;stroke-dasharray:none"
       id="rect2985"
       width="195.04915"
       height="195.04915"
       x="-349.17249"
       y="153.22359"
       ry="18.930275"
       transform="matrix(0,-1,1,0,0,0)" />
    <path
       style="fill:#ffffff;stroke:none"
       d="m 173.85379,232.28517 c -5.2983,-12.98203 29.19078,-38.37173 48.70275,-45.16714 8.36568,-2.91351 1.75129,109.31037 1.92248,119.24126 0.15326,8.89074 -16.89873,11.28447 -21.14725,-0.60222 -7.13358,-19.95865 -0.51346,-69.75064 -2.5633,-72.86967 -7.99254,-12.16142 -15.29911,9.45269 -26.91468,-0.60223 z"
       id="path3807"
       inkscape:connector-curvature="0"
       sodipodi:nodetypes="cssssc" />
    <path
       style="fill:#ffffff;stroke:none"
       d="m 235.65237,255.30512 c -7.96663,18.43741 -3.05062,49.67808 16.79345,52.77941 11.26651,1.76079 14.65058,-8.62577 14.65058,-8.62577 0,0 -0.72978,7.97924 2.28455,10.42507 2.48394,2.01545 8.99183,2.9356 9.35363,-0.24263 2.02081,-17.75195 2.94253,-44.14749 0.58618,-57.56395 -0.65798,-3.74644 -7.57403,-1.36523 -10.68127,0.82881 -10.90287,7.69859 1.94697,38.04131 -11.39555,38.38502 -13.7799,0.35498 -1.27515,-33.21637 -13.79462,-38.98479 -2.52905,-1.16527 -6.69246,0.44266 -7.79695,2.99883 z"
       id="path3809"
       inkscape:connector-curvature="0"
       sodipodi:nodetypes="sscsssssss" />
    <path
       id="path3813"
       style="fill:#ffffff;fill-rule:evenodd;stroke:none"
       d="m 301.67462,289.98201 c -5.12097,-3.73364 -5.60385,-18.47773 0.0179,-21.40344 6.19556,-3.22431 20.01991,5.50509 19.6285,12.47846 -0.40647,7.24172 -13.78566,13.19802 -19.64645,8.92498 z m -16.40703,42.50359 c 4.53829,-35.7069 -3.40455,-50.68929 5.35714,-72.14285 6.24702,-15.29621 39.88549,2.24494 41.07143,21.07143 1.18938,18.88111 -32.12132,22.53231 -32.12132,22.53231 0,0 1.69117,15.22678 0.64968,28.17479 -0.36645,4.5557 -15.73443,6.4816 -14.95693,0.36432 z"
       inkscape:connector-curvature="0"
       sodipodi:nodetypes="ssssssscss" />
  </g>
</svg>
