<?xml version="1.0" encoding="UTF-8" standalone="no"?>
<!-- Created with Inkscape (http://www.inkscape.org/) -->

<svg
   xmlns:dc="http://purl.org/dc/elements/1.1/"
   xmlns:cc="http://creativecommons.org/ns#"
   xmlns:rdf="http://www.w3.org/1999/02/22-rdf-syntax-ns#"
   xmlns:svg="http://www.w3.org/2000/svg"
   xmlns="http://www.w3.org/2000/svg"
   xmlns:xlink="http://www.w3.org/1999/xlink"
   xmlns:sodipodi="http://sodipodi.sourceforge.net/DTD/sodipodi-0.dtd"
   xmlns:inkscape="http://www.inkscape.org/namespaces/inkscape"
   width="232.38969"
   height="232.38969"
   id="svg2"
   version="1.1"
   inkscape:version="0.48.1 r9760"
   sodipodi:docname="poweritem.svg"
   inkscape:export-filename="/home/laochailan/power.png"
   inkscape:export-xdpi="6.1964884"
   inkscape:export-ydpi="6.1964884">
  <defs
     id="defs4">
    <linearGradient
       id="linearGradient3795">
      <stop
         style="stop-color:#ffffff;stop-opacity:1;"
         offset="0"
         id="stop3797" />
      <stop
         style="stop-color:#ff8a65;stop-opacity:1;"
         offset="1"
         id="stop3799" />
    </linearGradient>
    <linearGradient
       id="linearGradient3763">
      <stop
         style="stop-color:#001962;stop-opacity:1;"
         offset="0"
         id="stop3765" />
      <stop
         style="stop-color:#002b8a;stop-opacity:1;"
         offset="1"
         id="stop3767" />
    </linearGradient>
    <linearGradient
       inkscape:collect="always"
       xlink:href="#linearGradient3763"
       id="linearGradient3769"
       x1="98.428574"
       y1="251.6479"
       x2="323"
       y2="251.6479"
       gradientUnits="userSpaceOnUse"
       gradientTransform="matrix(0.89238176,0,0,0.89238176,-439.68548,26.182169)" />
    <radialGradient
       inkscape:collect="always"
       xlink:href="#linearGradient3795"
       id="radialGradient3801"
       cx="250.74817"
       cy="251.64787"
       fx="250.74817"
       fy="251.64787"
       r="73.50135"
       gradientTransform="matrix(1,0,0,1.1626409,0,-40.928237)"
       gradientUnits="userSpaceOnUse" />
  </defs>
  <sodipodi:namedview
     id="base"
     pagecolor="#606060"
     bordercolor="#666666"
     borderopacity="1.0"
     inkscape:pageopacity="0"
     inkscape:pageshadow="2"
     inkscape:zoom="0.061871843"
     inkscape:cx="19.603278"
     inkscape:cy="107.92439"
     inkscape:document-units="px"
     inkscape:current-layer="layer1"
     showgrid="false"
     fit-margin-top="0"
     fit-margin-left="0"
     fit-margin-right="0"
     fit-margin-bottom="0"
     inkscape:window-width="1920"
     inkscape:window-height="1039"
     inkscape:window-x="0"
     inkscape:window-y="-2"
     inkscape:window-maximized="1" />
  <metadata
     id="metadata7">
    <rdf:RDF>
      <cc:Work
         rdf:about="">
        <dc:format>image/svg+xml</dc:format>
        <dc:type
           rdf:resource="http://purl.org/dc/dcmitype/StillImage" />
        <dc:title></dc:title>
      </cc:Work>
    </rdf:RDF>
  </metadata>
  <g
     inkscape:label="Ebene 1"
     inkscape:groupmode="layer"
     id="layer1"
     transform="translate(-134.55331,-135.45305)">
    <rect
       transform="matrix(0,-1,1,0,0,0)"
       ry="22.554321"
       y="134.55331"
       x="-367.84274"
       height="232.38969"
       width="232.38969"
       id="rect3813"
       style="fill:#001697;fill-opacity:1;stroke:none" />
    <rect
       style="fill:url(#linearGradient3769);fill-opacity:1;stroke:#ffffff;stroke-width:19.52022361999999944;stroke-miterlimit:4;stroke-opacity:1;stroke-dasharray:none"
       id="rect2985"
       width="195.04915"
       height="195.04915"
       x="-349.17249"
       y="153.22359"
       ry="18.930275"
       transform="matrix(0,-1,1,0,0,0)" />
    <path
       id="path3850"
       style="font-size:180.6544342px;font-style:normal;font-weight:normal;line-height:125%;letter-spacing:0px;word-spacing:0px;fill:#ffffff;fill-opacity:1;stroke:none;font-family:Sans"
       d="m 198.61679,238.57041 c -11.35887,0.25682 -8.29895,28.77317 1.51523,32.06013 29.30315,9.81418 63.40574,9.81418 92.70889,0 9.81418,-3.28696 9.72279,-34.59818 0,-31.04998 -29.21755,10.66255 -85.66337,-1.20371 -94.22412,-1.01015 z m 119.09939,-42.38925 c 3.94647,-0.80762 3.9655,11.37648 0,12.08479 -22.20103,3.9655 -46.0397,-6.42606 -67.6572,0 -6.42606,1.91023 0,13.40795 0,20.11192 18.40652,0 41.99464,-12.8024 55.21956,0 12.8024,12.39338 16.22091,46.08112 0,53.45536 -35.68064,16.22091 -84.4289,18.24122 -120.10954,2.02031 -16.22091,-7.37424 -9.48545,-42.31371 2.52538,-55.47567 10.96038,-12.01083 32.52015,0 48.78023,0 0,-18.49473 -17.56062,-61.28764 0,-55.4842 4.65642,1.53886 8.98025,13.04055 20.36029,18.05171 17.15038,7.5521 43.90638,8.70958 60.88128,5.23578 z" />
    <path
       style="font-size:180.6544342px;font-style:normal;font-weight:normal;line-height:125%;letter-spacing:0px;word-spacing:0px;fill:#ffffff;fill-opacity:1;stroke:none;font-family:Sans"
       inkscape:connector-curvature="0"
       id="path3848"
       d="m 177.82128,310.6909 c 7.35568,-11.24414 12.62743,-18.12699 17.85969,-26.45733 2.26817,-3.61117 13.05336,0.56732 11.90838,4.67514 -2.19626,7.8795 -8.19171,21.24589 -18.38896,30.86784 -1.51217,1.42686 -16.98456,-0.51697 -11.37911,-9.08565 z" />
    <path
       style="font-size:180.6544342px;font-style:normal;font-weight:normal;line-height:125%;letter-spacing:0px;word-spacing:0px;fill:#ffffff;fill-opacity:1;stroke:none;font-family:Sans"
       inkscape:connector-curvature="0"
       id="path3846"
       d="m 229.66537,321.13411 c -2.01072,-7.76203 -6.08754,-15.6799 -8.06697,-27.22774 -0.63117,-3.68223 12.42839,-6.74528 14.28153,-3.40396 4.54523,8.19538 6.70118,15.78385 7.89907,27.88985 0.42157,4.26044 -11.74442,11.88779 -14.11363,2.74185 z" />
    <path
       style="font-size:180.6544342px;font-style:normal;font-weight:normal;line-height:125%;letter-spacing:0px;word-spacing:0px;fill:#ffffff;fill-opacity:1;stroke:none;font-family:Sans"
       inkscape:connector-curvature="0"
       id="path3844"
       d="m 269.27019,319.86096 c -2.44941,-6.54745 -7.90612,-21.71187 -9.96063,-26.48151 -1.65529,-3.84283 11.36724,-3.62377 14.93883,-1.44408 4.16555,2.54217 8.71178,19.31849 8.42974,22.89761 -0.92637,11.75581 -10.47208,12.87573 -13.40794,5.02798 z"
       sodipodi:nodetypes="sssss" />
    <path
       style="font-size:180.6544342px;font-style:normal;font-weight:normal;line-height:125%;letter-spacing:0px;word-spacing:0px;fill:#ffffff;fill-opacity:1;stroke:none;font-family:Sans"
       inkscape:connector-curvature="0"
       id="path3838"
       d="m 308.93175,315.98351 c -2.99547,-5.30584 -13.43015,-21.59636 -17.63631,-28.48617 -2.18017,-3.57118 6.33734,-6.54539 10.5212,-6.50336 8.41021,0.0845 19.29657,21.48067 19.55274,26.78598 0.23953,4.9607 -6.94721,17.92866 -12.43763,8.20355 z"
       sodipodi:nodetypes="sssss" />
  </g>
</svg>
