# Blender v2.63 (sub 0) OBJ File: 'mansion.blend'
# www.blender.org
v 7.200000 15.051811 0.000000
v 7.200000 -4.703387 0.000000
v -7.200001 -4.703386 0.000000
v -7.199998 15.051812 0.000000
v 7.200004 15.051809 5.216212
v 7.199996 -4.703390 5.216212
v -7.200003 -4.703385 5.216212
v -7.200000 15.051811 5.216212
v 9.173008 16.890579 4.248897
v 9.172999 -6.542161 4.248897
v -9.173006 -6.542155 4.248897
v -9.173003 16.890583 4.248897
v 6.059046 16.611769 6.134467
v 6.059039 -3.958062 6.134467
v -6.059045 -3.958058 6.134467
v -6.059043 16.611771 6.134467
v 9.399996 17.248425 0.000000
v 9.399996 -6.900001 0.000000
v -9.400002 -6.900000 0.000000
v -9.399999 17.248426 0.000000
v 10.399996 18.248425 0.000000
v 10.399996 -7.900001 0.000000
v -10.400002 -7.900000 0.000000
v -10.399999 18.248426 0.000000
v 10.399996 18.248425 -1.114107
v 10.399996 -7.900001 -1.114107
v -10.400002 -7.900000 -1.114107
v -10.399999 18.248426 -1.114107
v -3.010826 -4.703386 5.216212
v -3.010877 -4.703386 0.000000
v 2.982398 -4.703389 5.216212
v 2.982400 -4.703386 0.000000
v -4.000000 -7.900000 -1.114107
v -4.000000 -7.900000 0.000000
v 4.016253 -7.900001 -1.114107
v 4.016253 -7.900001 0.000000
v -4.000000 -7.900000 -0.557054
v 4.016253 -7.900001 -0.557054
v -4.000000 -9.076103 -1.114107
v 4.016253 -9.076104 -1.114107
v -4.000000 -9.076103 -0.557054
v 4.016253 -9.076104 -0.557054
v -3.010837 -4.703386 4.142046
v 2.982398 -4.703388 4.142024
v 2.853450 -6.900000 0.000000
v -2.883174 -6.900000 0.000000
vt 0.162027 0.621535
vt 0.536231 0.621536
vt 0.577840 0.648759
vt 0.120418 0.648758
vt 0.536028 0.790305
vt 0.536028 1.000000
vt 0.161819 1.000000
vt 0.161819 0.790305
vt 0.616415 0.341279
vt 0.564579 0.341279
vt 0.564578 0.202150
vt 0.616415 0.312272
vt 0.616414 0.202150
vt 0.162027 0.411843
vt 0.536232 0.411844
vt 0.052205 0.319428
vt 0.000000 0.295014
vt 0.000000 0.294973
vt 0.000000 0.169018
vt 0.000000 0.116829
vt 0.052205 0.092415
vt 0.093487 0.365928
vt 0.537355 0.365928
vt 0.502525 0.411843
vt 0.128318 0.411843
vt 0.537355 0.045915
vt 0.093487 0.045915
vt 0.128318 0.000000
vt 0.502525 0.000000
vt 0.532074 0.130947
vt 0.532074 0.280896
vt 0.142436 0.280896
vt 0.142436 0.130947
vt 0.577637 0.763083
vt 0.120210 0.763082
vt 0.101270 0.750710
vt 0.596577 0.750710
vt 0.537355 0.160541
vt 0.617995 0.160541
vt 0.101472 0.661134
vt 0.596784 0.661134
vt 0.596784 0.705922
vt 0.101472 0.705922
vt 0.549779 0.141599
vt 0.549729 0.141599
vt 0.701352 0.141598
vt 0.782360 0.141598
vt 0.794734 0.160541
vt 0.715742 0.160541
vt 0.101270 0.705922
vt 0.596577 0.705923
vt 0.022278 0.661134
vt 0.022278 0.683528
vt 0.022278 0.705922
vt 0.742763 0.341279
vt 0.690575 0.341279
vt 0.690575 0.312272
vt 0.742764 0.202150
vt 0.690575 0.202149
vt 0.022278 0.750709
vt 0.022278 0.728316
vt 0.000000 0.728316
vt 0.000000 0.705922
vt 0.000000 0.683528
vt 0.688980 0.160541
vt 0.769987 0.160541
vt 0.537355 0.044672
vt 0.537355 0.022394
vt 0.636548 0.022394
vt 0.636548 0.044672
vt 0.537355 0.000000
vt 0.636548 0.000000
vt 0.636548 0.067066
vt 0.537355 0.067066
vn -0.000000 0.000000 1.000000
vn 1.000000 -0.000000 0.000000
vn -0.000000 -1.000000 0.000000
vn -1.000000 0.000000 -0.000000
vn 0.000000 0.465574 -0.885009
vn 0.440215 -0.000000 -0.897892
vn -0.440215 0.000000 -0.897892
vn -0.000000 -0.589444 0.807809
vn -0.517964 0.000000 0.855402
vn 0.517964 -0.000000 0.855402
vn -0.000000 -1.000000 -0.000001
s off
f 3/1/1 4/2/1 20/3/1
f 3/1/1 20/3/1 19/4/1
f 1/5/2 5/6/2 6/7/2
f 1/5/2 6/7/2 2/8/2
f 29/9/3 7/10/3 3/11/3
f 43/12/3 29/9/3 3/11/3
f 30/13/3 43/12/3 3/11/3
f 3/1/4 7/14/4 8/15/4
f 3/1/4 8/15/4 4/2/4
f 11/16/5 7/17/5 29/18/5
f 11/16/5 29/18/5 31/19/5
f 11/16/5 31/19/5 6/20/5
f 10/21/5 11/16/5 6/20/5
f 11/22/6 12/23/6 8/24/6
f 11/22/6 8/24/6 7/25/6
f 9/26/7 10/27/7 6/28/7
f 9/26/7 6/28/7 5/29/7
f 13/30/1 16/31/1 15/32/1
f 13/30/1 15/32/1 14/33/1
f 14/33/8 15/32/8 11/16/8
f 14/33/8 11/16/8 10/21/8
f 15/32/9 16/31/9 12/23/9
f 15/32/9 12/23/9 11/22/9
f 13/30/10 14/33/10 10/27/10
f 13/30/10 10/27/10 9/26/10
f 17/34/1 18/35/1 22/36/1
f 17/34/1 22/36/1 21/37/1
f 30/13/1 3/11/1 19/38/1
f 30/13/1 19/38/1 46/39/1
f 1/5/1 2/8/1 18/35/1
f 1/5/1 18/35/1 17/34/1
f 23/40/4 24/41/4 28/42/4
f 23/40/4 28/42/4 27/43/4
f 46/44/1 19/45/1 23/38/1
f 45/46/1 46/44/1 23/38/1
f 18/47/1 45/46/1 23/38/1
f 18/47/1 23/38/1 22/48/1
f 23/38/1 34/38/1 22/48/1
f 34/38/1 36/49/1 22/48/1
f 19/4/1 20/3/1 24/41/1
f 19/4/1 24/41/1 23/40/1
f 21/37/2 22/36/2 26/50/2
f 21/37/2 26/50/2 25/51/2
f 34/52/3 23/40/3 27/43/3
f 34/52/3 27/43/3 37/53/3
f 27/43/3 33/54/3 37/53/3
f 6/55/11 31/56/11 44/57/11
f 2/58/11 6/55/11 44/57/11
f 2/58/3 44/57/3 32/59/3
f 22/36/3 36/60/3 38/61/3
f 22/36/3 38/61/3 26/50/3
f 38/61/3 35/54/3 26/50/3
f 42/62/2 40/63/2 35/54/2
f 42/62/2 35/54/2 38/61/2
f 37/53/4 33/54/4 39/63/4
f 37/53/4 39/63/4 41/64/4
f 44/57/3 31/56/3 29/9/3
f 44/57/3 29/9/3 43/12/3
f 2/58/1 32/59/1 45/65/1
f 2/58/1 45/65/1 18/66/1
f 32/59/1 30/13/1 46/39/1
f 32/59/1 46/39/1 45/65/1
f 37/67/1 41/68/1 42/69/1
f 37/67/1 42/69/1 38/70/1
f 42/69/3 41/68/3 39/71/3
f 42/69/3 39/71/3 40/72/3
f 37/67/3 38/70/3 36/73/3
f 37/67/3 36/73/3 34/74/3
