# Blender v2.63 (sub 14) OBJ File: 'skysphere.blend'
# www.blender.org
v -0.382683 0.000000 0.923880
v -0.707107 0.000000 0.707107
v -1.000000 0.000000 -0.000000
v -0.923880 0.000000 -0.382684
v -0.382683 0.000000 -0.923880
v -0.000000 0.000000 -1.000000
v -0.356842 0.138241 0.923880
v -0.659357 0.255436 0.707107
v -0.861492 0.333744 0.382683
v -0.932472 0.361242 -0.000000
v -0.861492 0.333744 -0.382684
v -0.659357 0.255436 -0.707107
v -0.356842 0.138241 -0.923880
v -0.282807 0.257812 0.923880
v -0.522558 0.476375 0.707107
v -0.682755 0.622414 0.382683
v -0.739009 0.673696 -0.000000
v -0.682755 0.622414 -0.382684
v -0.522558 0.476375 -0.707107
v -0.282807 0.257812 -0.923880
v -0.170577 0.342564 0.923880
v -0.315185 0.632976 0.707107
v -0.411809 0.827023 0.382683
v -0.445738 0.895163 -0.000000
v -0.411809 0.827023 -0.382684
v -0.315185 0.632976 -0.707107
v -0.170577 0.342564 -0.923880
v -0.035310 0.381051 0.923880
v -0.065244 0.704090 0.707107
v -0.085245 0.919938 0.382683
v -0.092268 0.995734 -0.000000
v -0.085245 0.919938 -0.382684
v -0.065244 0.704090 -0.707107
v -0.035310 0.381051 -0.923880
v -0.000000 -0.000000 1.000000
v 0.104726 0.368075 0.923880
v 0.193509 0.680113 0.707107
v 0.252831 0.888611 0.382683
v 0.273663 0.961826 -0.000000
v 0.252831 0.888611 -0.382684
v 0.193509 0.680113 -0.707107
v 0.104726 0.368075 -0.923880
v 0.230618 0.305388 0.923880
v 0.426127 0.564283 0.707107
v 0.556762 0.737272 0.382683
v 0.602634 0.798017 -0.000000
v 0.556762 0.737272 -0.382684
v 0.426127 0.564283 -0.707107
v 0.230618 0.305388 -0.923880
v 0.325364 0.201457 0.923880
v 0.601194 0.372244 0.707107
v 0.785498 0.486360 0.382683
v 0.850217 0.526432 -0.000000
v 0.785498 0.486360 -0.382684
v 0.601194 0.372244 -0.707107
v 0.325364 0.201457 -0.923880
v 0.376167 0.070318 0.923880
v 0.695067 0.129930 0.707107
v 0.908148 0.169762 0.382683
v 0.982973 0.183749 -0.000000
v 0.908148 0.169762 -0.382684
v 0.695067 0.129931 -0.707107
v 0.376167 0.070318 -0.923880
v 0.376167 -0.070318 0.923880
v 0.695067 -0.129931 0.707107
v 0.908148 -0.169762 0.382683
v 0.982973 -0.183750 -0.000000
v 0.908148 -0.169762 -0.382684
v 0.695067 -0.129930 -0.707107
v 0.376167 -0.070318 -0.923880
v 0.325364 -0.201457 0.923880
v 0.601194 -0.372244 0.707107
v 0.785498 -0.486360 0.382683
v 0.850217 -0.526432 -0.000000
v 0.785498 -0.486360 -0.382684
v 0.601194 -0.372244 -0.707107
v 0.325364 -0.201457 -0.923880
v 0.230618 -0.305388 0.923880
v 0.426127 -0.564283 0.707107
v 0.556762 -0.737272 0.382683
v 0.602634 -0.798017 -0.000000
v 0.556761 -0.737272 -0.382684
v 0.426127 -0.564283 -0.707107
v 0.230618 -0.305388 -0.923880
v 0.104726 -0.368075 0.923880
v 0.193509 -0.680113 0.707107
v 0.252831 -0.888611 0.382683
v 0.273663 -0.961825 -0.000000
v 0.252831 -0.888611 -0.382684
v 0.193509 -0.680113 -0.707107
v 0.104726 -0.368075 -0.923880
v -0.035310 -0.381051 0.923880
v -0.065244 -0.704090 0.707107
v -0.085245 -0.919938 0.382683
v -0.092269 -0.995734 -0.000000
v -0.085245 -0.919938 -0.382684
v -0.065244 -0.704090 -0.707107
v -0.035310 -0.381051 -0.923880
v -0.170577 -0.342564 0.923880
v -0.315185 -0.632976 0.707107
v -0.411809 -0.827023 0.382683
v -0.445738 -0.895163 -0.000000
v -0.411809 -0.827023 -0.382684
v -0.315185 -0.632976 -0.707107
v -0.170577 -0.342564 -0.923880
v -0.282807 -0.257812 0.923880
v -0.522558 -0.476375 0.707107
v -0.682755 -0.622414 0.382683
v -0.739009 -0.673695 -0.000000
v -0.682755 -0.622413 -0.382684
v -0.522558 -0.476375 -0.707107
v -0.282807 -0.257812 -0.923880
v -0.356842 -0.138241 0.923880
v -0.659357 -0.255436 0.707107
v -0.861492 -0.333744 0.382683
v -0.932472 -0.361242 -0.000000
v -0.861492 -0.333744 -0.382684
v -0.659357 -0.255436 -0.707107
v -0.356842 -0.138241 -0.923880
v -0.923880 0.000000 0.382683
v -0.707107 -0.000000 -0.707107
vt 0.250000 0.600586
vt 0.231445 0.597656
vt 0.216309 0.699219
vt 0.254395 0.706055
vt 0.674316 0.017578
vt 0.591797 0.101562
vt 0.643555 0.234375
vt 0.698730 0.180664
vt 0.318359 0.799805
vt 0.259277 0.832031
vt 0.267578 1.000000
vt 0.356445 0.950195
vt 0.752441 0.294922
vt 0.715332 0.302734
vt 0.729980 0.403320
vt 0.748535 0.400391
vt 0.291016 0.687500
vt 0.759766 0.169922
vt 0.268066 0.590820
vt 0.766602 0.000000
vt 0.367188 0.727539
vt 0.430664 0.840820
vt 0.789062 0.315430
vt 0.766113 0.411133
vt 0.320801 0.640625
vt 0.818848 0.204102
vt 0.282715 0.568359
vt 0.855957 0.050781
vt 0.399902 0.624023
vt 0.479492 0.683594
vt 0.819824 0.360352
vt 0.780762 0.433594
vt 0.342285 0.577148
vt 0.867188 0.278320
vt 0.292480 0.537109
vt 0.929688 0.163086
vt 0.412109 0.503906
vt 0.497070 0.501953
vt 0.839844 0.424805
vt 0.790527 0.464844
vt 0.348633 0.501953
vt 0.898926 0.382812
vt 0.295898 0.500977
vt 0.978027 0.320312
vt 0.400879 0.381836
vt 0.480469 0.318359
vt 0.846680 0.500000
vt 0.793945 0.500977
vt 0.341309 0.427734
vt 0.909668 0.503906
vt 0.292969 0.464844
vt 0.994629 0.501953
vt 0.368652 0.276367
vt 0.431152 0.159180
vt 0.839844 0.574219
vt 0.790039 0.538086
vt 0.322754 0.363281
vt 0.897949 0.623047
vt 0.283203 0.432617
vt 0.977051 0.683594
vt 0.319824 0.203125
vt 0.356445 0.048828
vt 0.820312 0.638672
vt 0.780273 0.569336
vt 0.292480 0.316406
vt 0.865234 0.726562
vt 0.268555 0.411133
vt 0.928223 0.839844
vt 0.261230 0.168945
vt 0.267090 0.000000
vt 0.790039 0.685547
vt 0.765625 0.590820
vt 0.255859 0.293945
vt 0.815918 0.798828
vt 0.250977 0.400391
vt 0.854492 0.950195
vt 0.200195 0.180664
vt 0.175293 0.018555
vt 0.753418 0.706055
vt 0.747559 0.600586
vt 0.218262 0.302734
vt 0.757324 0.831055
vt 0.232422 0.403320
vt 0.766113 1.000000
vt 0.145508 0.235352
vt 0.093262 0.102539
vt 0.715820 0.699219
vt 0.729492 0.596680
vt 0.184082 0.334961
vt 0.696777 0.819336
vt 0.215820 0.418945
vt 0.674316 0.982422
vt 0.104492 0.325195
vt 0.032227 0.240234
vt 0.681641 0.666016
vt 0.712891 0.580078
vt 0.157715 0.389648
vt 0.642090 0.763672
vt 0.203125 0.445312
vt 0.592285 0.899414
vt 0.082520 0.437500
vt 0.000000 0.410156
vt 0.655762 0.610352
vt 0.700684 0.552734
vt 0.143555 0.460938
vt 0.601562 0.672852
vt 0.196289 0.480469
vt 0.530273 0.763672
vt 0.082031 0.558594
vt 0.000000 0.591797
vt 0.642090 0.539062
vt 0.693848 0.518555
vt 0.143555 0.538086
vt 0.580078 0.558594
vt 0.195801 0.517578
vt 0.497070 0.591797
vt 0.103516 0.671875
vt 0.032715 0.761719
vt 0.641602 0.462891
vt 0.693848 0.481445
vt 0.157715 0.608398
vt 0.580566 0.437500
vt 0.202637 0.551758
vt 0.497070 0.408203
vt 0.144531 0.763672
vt 0.094238 0.899414
vt 0.655273 0.391602
vt 0.700684 0.446289
vt 0.183105 0.664062
vt 0.602539 0.324219
vt 0.214844 0.580078
vt 0.530273 0.237305
vt 0.713379 0.419922
vt 0.743652 0.500000
vt 0.245605 0.500000
vt 0.198730 0.819336
vt 0.176270 0.982422
vt 0.680664 0.334961
vn 0.552598 -0.103298 -0.827022
vn 0.964706 -0.180335 0.191892
vn 0.834417 -0.516649 -0.191892
vn 0.477967 -0.295944 0.827021
vn 0.710643 -0.440011 -0.548979
vn 0.710642 -0.440011 0.548979
vn 0.477967 -0.295944 -0.827022
vn 0.834417 -0.516649 0.191892
vn 0.591435 -0.783187 -0.191892
vn 0.338783 -0.448622 0.827022
vn 0.503704 -0.667012 -0.548979
vn 0.503704 -0.667012 0.548979
vn 0.338783 -0.448622 -0.827022
vn 0.591435 -0.783187 0.191892
vn 0.268577 -0.943951 -0.191892
vn 0.153845 -0.540710 0.827022
vn 0.228738 -0.803929 -0.548979
vn 0.228737 -0.803929 0.548979
vn 0.153845 -0.540710 -0.827022
vn 0.268577 -0.943951 0.191892
vn -0.090554 -0.977229 -0.191892
vn -0.051871 -0.559772 0.827021
vn -0.077121 -0.832271 -0.548979
vn -0.077121 -0.832271 0.548979
vn -0.051871 -0.559772 -0.827022
vn -0.090554 -0.977230 0.191892
vn -0.437455 -0.878528 -0.191892
vn -0.250581 -0.503234 0.827021
vn -0.372564 -0.748210 -0.548979
vn -0.372564 -0.748210 0.548979
vn -0.250581 -0.503234 -0.827022
vn -0.437455 -0.878528 0.191892
vn -0.725275 -0.661176 -0.191892
vn -0.415449 -0.378732 0.827022
vn -0.617691 -0.563099 -0.548978
vn -0.617691 -0.563099 0.548979
vn -0.415449 -0.378732 -0.827022
vn -0.725275 -0.661175 0.191892
vn -0.915143 -0.354528 -0.191892
vn -0.524208 -0.203079 0.827021
vn -0.779394 -0.301939 -0.548979
vn -0.779394 -0.301939 0.548979
vn -0.524208 -0.203079 -0.827022
vn -0.915143 -0.354528 0.191892
vn -0.981416 0.000000 -0.191892
vn -0.562170 0.000000 0.827021
vn -0.835836 0.000000 -0.548979
vn -0.835836 0.000000 0.548979
vn -0.562170 0.000000 -0.827022
vn -0.981416 0.000000 0.191892
vn -0.915143 0.354529 -0.191892
vn -0.524208 0.203079 0.827021
vn -0.779394 0.301939 -0.548979
vn -0.779394 0.301939 0.548979
vn -0.524208 0.203079 -0.827022
vn -0.915143 0.354528 0.191892
vn -0.725275 0.661176 -0.191892
vn -0.415449 0.378732 0.827021
vn -0.617691 0.563099 -0.548979
vn -0.617691 0.563099 0.548979
vn -0.415449 0.378732 -0.827022
vn -0.725275 0.661176 0.191892
vn -0.437455 0.878528 -0.191892
vn -0.250581 0.503234 0.827022
vn -0.372564 0.748210 -0.548979
vn -0.372564 0.748210 0.548979
vn -0.250581 0.503234 -0.827022
vn -0.437455 0.878528 0.191892
vn -0.090554 0.977230 -0.191891
vn -0.051871 0.559772 0.827022
vn -0.077121 0.832271 -0.548979
vn -0.077121 0.832271 0.548978
vn -0.051871 0.559772 -0.827022
vn -0.090553 0.977230 0.191892
vn 0.268577 0.943951 -0.191891
vn 0.153845 0.540710 0.827022
vn 0.228738 0.803929 -0.548979
vn 0.228738 0.803929 0.548978
vn 0.153845 0.540710 -0.827022
vn 0.268577 0.943951 0.191892
vn 0.591435 0.783187 -0.191891
vn 0.338783 0.448621 0.827022
vn 0.503704 0.667012 -0.548979
vn 0.503704 0.667012 0.548978
vn 0.338783 0.448622 -0.827022
vn 0.591435 0.783187 0.191892
vn 0.834417 0.516649 -0.191891
vn 0.477967 0.295944 0.827022
vn 0.710642 0.440011 -0.548979
vn 0.710643 0.440011 0.548978
vn 0.477967 0.295944 -0.827022
vn 0.834417 0.516649 0.191892
vn 0.194961 -0.036444 0.980134
vn 0.194961 -0.036444 -0.980134
vn 0.964706 -0.180335 -0.191892
vn 0.552598 -0.103299 0.827022
vn 0.821605 -0.153585 -0.548979
vn 0.821605 -0.153585 0.548979
vn 0.168630 -0.104411 0.980134
vn 0.168630 -0.104411 -0.980134
vn 0.119525 -0.158277 0.980134
vn 0.119525 -0.158277 -0.980134
vn 0.054278 -0.190766 0.980134
vn 0.054278 -0.190766 -0.980134
vn -0.018300 -0.197492 0.980134
vn -0.018300 -0.197491 -0.980134
vn -0.088407 -0.177545 0.980134
vn -0.088407 -0.177544 -0.980134
vn -0.146574 -0.133619 0.980134
vn -0.146573 -0.133619 -0.980134
vn -0.184945 -0.071648 0.980134
vn -0.184944 -0.071648 -0.980134
vn -0.198338 0.000000 0.980134
vn -0.198338 0.000000 -0.980134
vn -0.184945 0.071648 0.980134
vn -0.184944 0.071648 -0.980134
vn -0.146573 0.133619 0.980134
vn -0.146573 0.133619 -0.980134
vn -0.088407 0.177545 0.980134
vn -0.088407 0.177545 -0.980134
vn -0.018300 0.197492 0.980134
vn -0.018300 0.197492 -0.980134
vn 0.054278 0.190766 0.980134
vn 0.054278 0.190766 -0.980134
vn 0.119525 0.158277 0.980134
vn 0.119525 0.158277 -0.980134
vn 0.168630 0.104411 0.980134
vn 0.168630 0.104411 -0.980134
vn 0.194961 0.036444 0.980134
vn 0.194961 0.036444 -0.980134
vn 0.964706 0.180335 -0.191891
vn 0.552598 0.103299 0.827022
vn 0.821605 0.153584 -0.548979
vn 0.821605 0.153585 0.548979
vn 0.552598 0.103298 -0.827022
vn 0.964706 0.180335 0.191892
s off
f 7/1/1 1/2/1 2/3/1
f 7/1/1 2/3/1 8/4/1
f 10/5/2 3/6/2 4/7/2
f 10/5/2 4/7/2 11/8/2
f 16/9/3 9/10/3 10/11/3
f 16/9/3 10/11/3 17/12/3
f 19/13/4 12/14/4 13/15/4
f 19/13/4 13/15/4 20/16/4
f 15/17/5 8/4/5 9/10/5
f 15/17/5 9/10/5 16/9/5
f 18/18/6 11/8/6 12/14/6
f 18/18/6 12/14/6 19/13/6
f 14/19/7 7/1/7 8/4/7
f 14/19/7 8/4/7 15/17/7
f 17/20/8 10/5/8 11/8/8
f 17/20/8 11/8/8 18/18/8
f 23/21/9 16/9/9 17/12/9
f 23/21/9 17/12/9 24/22/9
f 26/23/10 19/13/10 20/16/10
f 26/23/10 20/16/10 27/24/10
f 22/25/11 15/17/11 16/9/11
f 22/25/11 16/9/11 23/21/11
f 25/26/12 18/18/12 19/13/12
f 25/26/12 19/13/12 26/23/12
f 21/27/13 14/19/13 15/17/13
f 21/27/13 15/17/13 22/25/13
f 24/28/14 17/20/14 18/18/14
f 24/28/14 18/18/14 25/26/14
f 30/29/15 23/21/15 24/22/15
f 30/29/15 24/22/15 31/30/15
f 33/31/16 26/23/16 27/24/16
f 33/31/16 27/24/16 34/32/16
f 29/33/17 22/25/17 23/21/17
f 29/33/17 23/21/17 30/29/17
f 32/34/18 25/26/18 26/23/18
f 32/34/18 26/23/18 33/31/18
f 28/35/19 21/27/19 22/25/19
f 28/35/19 22/25/19 29/33/19
f 31/36/20 24/28/20 25/26/20
f 31/36/20 25/26/20 32/34/20
f 38/37/21 30/29/21 31/30/21
f 38/37/21 31/30/21 39/38/21
f 41/39/22 33/31/22 34/32/22
f 41/39/22 34/32/22 42/40/22
f 37/41/23 29/33/23 30/29/23
f 37/41/23 30/29/23 38/37/23
f 40/42/24 32/34/24 33/31/24
f 40/42/24 33/31/24 41/39/24
f 36/43/25 28/35/25 29/33/25
f 36/43/25 29/33/25 37/41/25
f 39/44/26 31/36/26 32/34/26
f 39/44/26 32/34/26 40/42/26
f 45/45/27 38/37/27 39/38/27
f 45/45/27 39/38/27 46/46/27
f 48/47/28 41/39/28 42/40/28
f 48/47/28 42/40/28 49/48/28
f 44/49/29 37/41/29 38/37/29
f 44/49/29 38/37/29 45/45/29
f 47/50/30 40/42/30 41/39/30
f 47/50/30 41/39/30 48/47/30
f 43/51/31 36/43/31 37/41/31
f 43/51/31 37/41/31 44/49/31
f 46/52/32 39/44/32 40/42/32
f 46/52/32 40/42/32 47/50/32
f 52/53/33 45/45/33 46/46/33
f 52/53/33 46/46/33 53/54/33
f 55/55/34 48/47/34 49/48/34
f 55/55/34 49/48/34 56/56/34
f 51/57/35 44/49/35 45/45/35
f 51/57/35 45/45/35 52/53/35
f 54/58/36 47/50/36 48/47/36
f 54/58/36 48/47/36 55/55/36
f 50/59/37 43/51/37 44/49/37
f 50/59/37 44/49/37 51/57/37
f 53/60/38 46/52/38 47/50/38
f 53/60/38 47/50/38 54/58/38
f 59/61/39 52/53/39 53/54/39
f 59/61/39 53/54/39 60/62/39
f 62/63/40 55/55/40 56/56/40
f 62/63/40 56/56/40 63/64/40
f 58/65/41 51/57/41 52/53/41
f 58/65/41 52/53/41 59/61/41
f 61/66/42 54/58/42 55/55/42
f 61/66/42 55/55/42 62/63/42
f 57/67/43 50/59/43 51/57/43
f 57/67/43 51/57/43 58/65/43
f 60/68/44 53/60/44 54/58/44
f 60/68/44 54/58/44 61/66/44
f 66/69/45 59/61/45 60/62/45
f 66/69/45 60/62/45 67/70/45
f 69/71/46 62/63/46 63/64/46
f 69/71/46 63/64/46 70/72/46
f 65/73/47 58/65/47 59/61/47
f 65/73/47 59/61/47 66/69/47
f 68/74/48 61/66/48 62/63/48
f 68/74/48 62/63/48 69/71/48
f 64/75/49 57/67/49 58/65/49
f 64/75/49 58/65/49 65/73/49
f 67/76/50 60/68/50 61/66/50
f 67/76/50 61/66/50 68/74/50
f 73/77/51 66/69/51 67/70/51
f 73/77/51 67/70/51 74/78/51
f 76/79/52 69/71/52 70/72/52
f 76/79/52 70/72/52 77/80/52
f 72/81/53 65/73/53 66/69/53
f 72/81/53 66/69/53 73/77/53
f 75/82/54 68/74/54 69/71/54
f 75/82/54 69/71/54 76/79/54
f 71/83/55 64/75/55 65/73/55
f 71/83/55 65/73/55 72/81/55
f 74/84/56 67/76/56 68/74/56
f 74/84/56 68/74/56 75/82/56
f 80/85/57 73/77/57 74/78/57
f 80/85/57 74/78/57 81/86/57
f 83/87/58 76/79/58 77/80/58
f 83/87/58 77/80/58 84/88/58
f 79/89/59 72/81/59 73/77/59
f 79/89/59 73/77/59 80/85/59
f 82/90/60 75/82/60 76/79/60
f 82/90/60 76/79/60 83/87/60
f 78/91/61 71/83/61 72/81/61
f 78/91/61 72/81/61 79/89/61
f 81/92/62 74/84/62 75/82/62
f 81/92/62 75/82/62 82/90/62
f 87/93/63 80/85/63 81/86/63
f 87/93/63 81/86/63 88/94/63
f 90/95/64 83/87/64 84/88/64
f 90/95/64 84/88/64 91/96/64
f 86/97/65 79/89/65 80/85/65
f 86/97/65 80/85/65 87/93/65
f 89/98/66 82/90/66 83/87/66
f 89/98/66 83/87/66 90/95/66
f 85/99/67 78/91/67 79/89/67
f 85/99/67 79/89/67 86/97/67
f 88/100/68 81/92/68 82/90/68
f 88/100/68 82/90/68 89/98/68
f 94/101/69 87/93/69 88/94/69
f 94/101/69 88/94/69 95/102/69
f 97/103/70 90/95/70 91/96/70
f 97/103/70 91/96/70 98/104/70
f 93/105/71 86/97/71 87/93/71
f 93/105/71 87/93/71 94/101/71
f 96/106/72 89/98/72 90/95/72
f 96/106/72 90/95/72 97/103/72
f 92/107/73 85/99/73 86/97/73
f 92/107/73 86/97/73 93/105/73
f 95/108/74 88/100/74 89/98/74
f 95/108/74 89/98/74 96/106/74
f 101/109/75 94/101/75 95/102/75
f 101/109/75 95/102/75 102/110/75
f 104/111/76 97/103/76 98/104/76
f 104/111/76 98/104/76 105/112/76
f 100/113/77 93/105/77 94/101/77
f 100/113/77 94/101/77 101/109/77
f 103/114/78 96/106/78 97/103/78
f 103/114/78 97/103/78 104/111/78
f 99/115/79 92/107/79 93/105/79
f 99/115/79 93/105/79 100/113/79
f 102/116/80 95/108/80 96/106/80
f 102/116/80 96/106/80 103/114/80
f 108/117/81 101/109/81 102/110/81
f 108/117/81 102/110/81 109/118/81
f 111/119/82 104/111/82 105/112/82
f 111/119/82 105/112/82 112/120/82
f 107/121/83 100/113/83 101/109/83
f 107/121/83 101/109/83 108/117/83
f 110/122/84 103/114/84 104/111/84
f 110/122/84 104/111/84 111/119/84
f 106/123/85 99/115/85 100/113/85
f 106/123/85 100/113/85 107/121/85
f 109/124/86 102/116/86 103/114/86
f 109/124/86 103/114/86 110/122/86
f 115/125/87 108/117/87 109/118/87
f 115/125/87 109/118/87 116/126/87
f 118/127/88 111/119/88 112/120/88
f 118/127/88 112/120/88 119/128/88
f 114/129/89 107/121/89 108/117/89
f 114/129/89 108/117/89 115/125/89
f 117/130/90 110/122/90 111/119/90
f 117/130/90 111/119/90 118/127/90
f 113/131/91 106/123/91 107/121/91
f 113/131/91 107/121/91 114/129/91
f 116/132/92 109/124/92 110/122/92
f 116/132/92 110/122/92 117/130/92
f 13/15/93 5/133/93 6/134/93
f 35/135/94 1/2/94 7/1/94
f 9/10/95 120/136/95 3/137/95
f 9/10/95 3/137/95 10/11/95
f 12/14/96 121/138/96 5/133/96
f 12/14/96 5/133/96 13/15/96
f 8/4/97 2/3/97 120/136/97
f 8/4/97 120/136/97 9/10/97
f 11/8/98 4/7/98 121/138/98
f 11/8/98 121/138/98 12/14/98
f 20/16/99 13/15/99 6/134/99
f 35/135/100 7/1/100 14/19/100
f 27/24/101 20/16/101 6/134/101
f 35/135/102 14/19/102 21/27/102
f 34/32/103 27/24/103 6/134/103
f 35/135/104 21/27/104 28/35/104
f 42/40/105 34/32/105 6/134/105
f 35/135/106 28/35/106 36/43/106
f 49/48/107 42/40/107 6/134/107
f 35/135/108 36/43/108 43/51/108
f 56/56/109 49/48/109 6/134/109
f 35/135/110 43/51/110 50/59/110
f 63/64/111 56/56/111 6/134/111
f 35/135/112 50/59/112 57/67/112
f 70/72/113 63/64/113 6/134/113
f 35/135/114 57/67/114 64/75/114
f 77/80/115 70/72/115 6/134/115
f 35/135/116 64/75/116 71/83/116
f 84/88/117 77/80/117 6/134/117
f 35/135/118 71/83/118 78/91/118
f 91/96/119 84/88/119 6/134/119
f 35/135/120 78/91/120 85/99/120
f 98/104/121 91/96/121 6/134/121
f 35/135/122 85/99/122 92/107/122
f 105/112/123 98/104/123 6/134/123
f 35/135/124 92/107/124 99/115/124
f 112/120/125 105/112/125 6/134/125
f 35/135/126 99/115/126 106/123/126
f 119/128/127 112/120/127 6/134/127
f 35/135/128 106/123/128 113/131/128
f 5/133/129 119/128/129 6/134/129
f 113/131/130 1/2/130 35/135/130
f 120/136/131 115/125/131 116/126/131
f 120/136/131 116/126/131 3/137/131
f 121/138/132 118/127/132 119/128/132
f 121/138/132 119/128/132 5/133/132
f 2/3/133 114/129/133 115/125/133
f 2/3/133 115/125/133 120/136/133
f 4/7/134 117/130/134 118/127/134
f 4/7/134 118/127/134 121/138/134
f 1/2/135 113/131/135 114/129/135
f 1/2/135 114/129/135 2/3/135
f 3/6/136 116/132/136 117/130/136
f 3/6/136 117/130/136 4/7/136
